<?xml version="1.0" encoding="UTF-8" standalone="no"?>
<!DOCTYPE svg PUBLIC "-//W3C//DTD SVG 1.1//EN" "http://www.w3.org/Graphics/SVG/1.1/DTD/svg11.dtd">
<svg width="100%" height="100%" viewBox="0 0 1080 1080" version="1.1" xmlns="http://www.w3.org/2000/svg" xmlns:xlink="http://www.w3.org/1999/xlink" xml:space="preserve" xmlns:serif="http://www.serif.com/" style="fill-rule:evenodd;clip-rule:evenodd;stroke-linejoin:round;stroke-miterlimit:2;">
    <g transform="matrix(0.815055,0,0,0.93292,95.9735,29.8178)">
        <rect x="-117.751" y="-31.962" width="1325.06" height="1157.65" style="fill:url(#_Radial1);"/>
    </g>
    <g transform="matrix(1.04447,0,0,1.04447,-170.348,-48.3931)">
        <g transform="matrix(779.988,0,0,779.988,288.681,840.603)">
            <path d="M0.381,-0.711L0.381,-0L0.235,-0L0.235,-0.711L0.381,-0.711ZM0.6,-0.711L0.6,-0.596L0.02,-0.596L0.02,-0.711L0.6,-0.711Z" style="fill:white;fill-rule:nonzero;"/>
        </g>
        <g transform="matrix(779.988,0,0,779.988,664.061,840.603)">
            <path d="M0.211,-0.06L0.351,-0.528L0.502,-0.528L0.29,0.08C0.285,0.093 0.279,0.107 0.272,0.122C0.264,0.138 0.254,0.152 0.241,0.166C0.228,0.18 0.212,0.192 0.193,0.2C0.173,0.209 0.149,0.213 0.121,0.213C0.108,0.213 0.097,0.213 0.089,0.211C0.08,0.209 0.07,0.207 0.059,0.204L0.059,0.101C0.062,0.101 0.078,0.102 0.081,0.102C0.1,0.102 0.115,0.099 0.126,0.095C0.138,0.091 0.148,0.085 0.155,0.076C0.162,0.067 0.168,0.056 0.172,0.043L0.211,-0.06ZM0.153,-0.528L0.268,-0.146L0.288,0.003L0.192,0.014L0.002,-0.528L0.153,-0.528Z" style="fill:white;fill-rule:nonzero;"/>
        </g>
        <g transform="matrix(779.988,0,0,779.988,1056.85,840.603)">
        </g>
    </g>
    <g transform="matrix(0.113437,0,0,0.113437,185.513,875.006)">
        <g transform="matrix(779.988,0,0,779.988,288.681,840.603)">
            <path d="M0.373,-0.711L0.373,-0L0.239,-0L0.239,-0.711L0.373,-0.711ZM0.594,-0.711L0.594,-0.605L0.021,-0.605L0.021,-0.711L0.594,-0.711Z" style="fill:white;fill-rule:nonzero;"/>
        </g>
        <g transform="matrix(779.988,0,0,779.988,668.488,840.603)">
            <path d="M0.213,-0.059L0.354,-0.528L0.493,-0.528L0.281,0.08C0.276,0.093 0.27,0.107 0.262,0.123C0.254,0.138 0.244,0.153 0.231,0.166C0.219,0.18 0.203,0.192 0.184,0.2C0.165,0.209 0.142,0.213 0.115,0.213C0.103,0.213 0.093,0.213 0.083,0.211C0.074,0.209 0.065,0.207 0.055,0.205L0.055,0.108C0.058,0.108 0.062,0.108 0.066,0.109C0.071,0.109 0.074,0.109 0.077,0.109C0.096,0.109 0.112,0.107 0.124,0.102C0.137,0.098 0.147,0.091 0.155,0.081C0.162,0.072 0.169,0.059 0.174,0.044L0.213,-0.059ZM0.143,-0.528L0.263,-0.139L0.284,-0.003L0.195,0.013L0.004,-0.528L0.143,-0.528Z" style="fill:white;fill-rule:nonzero;"/>
        </g>
        <g transform="matrix(779.988,0,0,779.988,1055.84,840.603)">
            <path d="M0.187,-0.427L0.187,0.203L0.058,0.203L0.058,-0.528L0.177,-0.528L0.187,-0.427ZM0.526,-0.27L0.526,-0.259C0.526,-0.221 0.522,-0.185 0.513,-0.153C0.504,-0.12 0.491,-0.091 0.474,-0.067C0.456,-0.043 0.435,-0.024 0.409,-0.01C0.384,0.003 0.354,0.01 0.321,0.01C0.289,0.01 0.26,0.003 0.236,-0.009C0.212,-0.022 0.192,-0.04 0.175,-0.063C0.159,-0.086 0.145,-0.113 0.135,-0.143C0.125,-0.174 0.118,-0.208 0.113,-0.244L0.113,-0.277C0.118,-0.316 0.125,-0.351 0.135,-0.383C0.146,-0.414 0.159,-0.442 0.175,-0.465C0.192,-0.488 0.212,-0.506 0.236,-0.519C0.26,-0.532 0.288,-0.538 0.32,-0.538C0.354,-0.538 0.383,-0.532 0.409,-0.519C0.434,-0.506 0.456,-0.488 0.474,-0.464C0.491,-0.441 0.504,-0.412 0.513,-0.379C0.522,-0.346 0.526,-0.31 0.526,-0.27ZM0.397,-0.259L0.397,-0.27C0.397,-0.293 0.395,-0.315 0.391,-0.335C0.387,-0.355 0.38,-0.372 0.371,-0.387C0.362,-0.402 0.351,-0.414 0.337,-0.423C0.323,-0.431 0.306,-0.435 0.286,-0.435C0.266,-0.435 0.249,-0.432 0.235,-0.426C0.221,-0.419 0.209,-0.41 0.2,-0.398C0.19,-0.386 0.183,-0.372 0.178,-0.355C0.173,-0.339 0.17,-0.321 0.169,-0.301L0.169,-0.22C0.171,-0.196 0.177,-0.174 0.186,-0.155C0.194,-0.135 0.207,-0.12 0.223,-0.109C0.239,-0.098 0.261,-0.092 0.287,-0.092C0.307,-0.092 0.324,-0.096 0.338,-0.105C0.352,-0.114 0.363,-0.126 0.372,-0.141C0.381,-0.157 0.387,-0.175 0.391,-0.195C0.395,-0.215 0.397,-0.236 0.397,-0.259Z" style="fill:white;fill-rule:nonzero;"/>
        </g>
        <g transform="matrix(779.988,0,0,779.988,1494.42,840.603)">
            <path d="M0.349,-0.144C0.349,-0.155 0.346,-0.165 0.34,-0.174C0.334,-0.183 0.323,-0.191 0.307,-0.199C0.291,-0.206 0.267,-0.213 0.237,-0.219C0.209,-0.225 0.184,-0.232 0.161,-0.241C0.138,-0.25 0.118,-0.261 0.101,-0.273C0.084,-0.286 0.071,-0.301 0.062,-0.318C0.053,-0.335 0.048,-0.355 0.048,-0.377C0.048,-0.399 0.053,-0.419 0.063,-0.439C0.072,-0.458 0.086,-0.475 0.104,-0.49C0.122,-0.505 0.143,-0.517 0.169,-0.525C0.195,-0.534 0.223,-0.538 0.256,-0.538C0.301,-0.538 0.339,-0.531 0.372,-0.516C0.404,-0.501 0.429,-0.481 0.446,-0.456C0.464,-0.43 0.472,-0.402 0.472,-0.369L0.343,-0.369C0.343,-0.383 0.34,-0.396 0.334,-0.408C0.327,-0.419 0.318,-0.429 0.305,-0.436C0.292,-0.443 0.275,-0.446 0.255,-0.446C0.237,-0.446 0.222,-0.443 0.21,-0.437C0.198,-0.431 0.189,-0.424 0.182,-0.414C0.176,-0.405 0.173,-0.394 0.173,-0.383C0.173,-0.374 0.175,-0.367 0.178,-0.36C0.182,-0.353 0.187,-0.347 0.195,-0.342C0.203,-0.336 0.214,-0.331 0.227,-0.327C0.241,-0.322 0.257,-0.318 0.277,-0.314C0.317,-0.306 0.351,-0.295 0.38,-0.282C0.41,-0.269 0.433,-0.253 0.45,-0.231C0.466,-0.21 0.475,-0.183 0.475,-0.15C0.475,-0.127 0.47,-0.106 0.459,-0.086C0.449,-0.067 0.435,-0.05 0.415,-0.035C0.396,-0.021 0.373,-0.01 0.347,-0.002C0.32,0.006 0.29,0.01 0.257,0.01C0.208,0.01 0.167,0.001 0.133,-0.016C0.1,-0.034 0.074,-0.056 0.057,-0.083C0.04,-0.11 0.031,-0.138 0.031,-0.166L0.155,-0.166C0.156,-0.146 0.161,-0.13 0.171,-0.117C0.181,-0.105 0.194,-0.096 0.21,-0.091C0.225,-0.085 0.242,-0.083 0.259,-0.083C0.279,-0.083 0.295,-0.085 0.308,-0.091C0.321,-0.096 0.331,-0.103 0.338,-0.112C0.345,-0.122 0.349,-0.132 0.349,-0.144Z" style="fill:white;fill-rule:nonzero;"/>
        </g>
        <g transform="matrix(779.988,0,0,779.988,1895.59,840.603)">
            <path d="M0.195,-0.528L0.195,-0L0.065,-0L0.065,-0.528L0.195,-0.528ZM0.057,-0.666C0.057,-0.686 0.063,-0.702 0.077,-0.714C0.09,-0.727 0.107,-0.733 0.13,-0.733C0.152,-0.733 0.17,-0.727 0.183,-0.714C0.197,-0.702 0.203,-0.686 0.203,-0.666C0.203,-0.647 0.197,-0.632 0.183,-0.619C0.17,-0.607 0.152,-0.6 0.13,-0.6C0.107,-0.6 0.09,-0.607 0.077,-0.619C0.063,-0.632 0.057,-0.647 0.057,-0.666Z" style="fill:white;fill-rule:nonzero;"/>
        </g>
        <g transform="matrix(779.988,0,0,779.988,2098.19,840.603)">
            <path d="M0.373,-0.125L0.373,-0.528L0.502,-0.528L0.502,-0L0.38,-0L0.373,-0.125ZM0.389,-0.235L0.429,-0.236C0.429,-0.2 0.425,-0.168 0.418,-0.138C0.41,-0.108 0.397,-0.082 0.381,-0.06C0.365,-0.038 0.344,-0.021 0.319,-0.009C0.294,0.004 0.264,0.01 0.23,0.01C0.204,0.01 0.18,0.006 0.159,-0.001C0.137,-0.009 0.119,-0.02 0.103,-0.036C0.088,-0.052 0.076,-0.072 0.067,-0.097C0.059,-0.122 0.055,-0.152 0.055,-0.187L0.055,-0.528L0.184,-0.528L0.184,-0.186C0.184,-0.169 0.186,-0.154 0.19,-0.142C0.194,-0.13 0.2,-0.121 0.207,-0.114C0.214,-0.106 0.223,-0.101 0.233,-0.098C0.243,-0.095 0.253,-0.093 0.265,-0.093C0.296,-0.093 0.321,-0.099 0.339,-0.112C0.357,-0.124 0.37,-0.141 0.377,-0.163C0.385,-0.184 0.389,-0.208 0.389,-0.235Z" style="fill:white;fill-rule:nonzero;"/>
        </g>
        <g transform="matrix(779.988,0,0,779.988,2533.54,840.603)">
            <path d="M0.187,-0.42L0.187,-0L0.057,-0L0.057,-0.528L0.179,-0.528L0.187,-0.42ZM0.167,-0.283L0.128,-0.283C0.128,-0.32 0.132,-0.354 0.141,-0.385C0.15,-0.416 0.164,-0.443 0.181,-0.466C0.199,-0.489 0.22,-0.507 0.246,-0.519C0.272,-0.532 0.302,-0.538 0.336,-0.538C0.36,-0.538 0.382,-0.535 0.402,-0.528C0.422,-0.521 0.439,-0.51 0.453,-0.495C0.468,-0.48 0.479,-0.461 0.487,-0.437C0.495,-0.414 0.499,-0.385 0.499,-0.352L0.499,-0L0.37,-0L0.37,-0.339C0.37,-0.364 0.366,-0.384 0.359,-0.397C0.352,-0.411 0.342,-0.421 0.329,-0.427C0.316,-0.433 0.3,-0.435 0.282,-0.435C0.262,-0.435 0.245,-0.431 0.23,-0.424C0.216,-0.416 0.204,-0.405 0.195,-0.391C0.185,-0.377 0.178,-0.361 0.174,-0.342C0.17,-0.324 0.167,-0.304 0.167,-0.283ZM0.489,-0.307L0.436,-0.298C0.436,-0.331 0.44,-0.362 0.449,-0.391C0.458,-0.42 0.471,-0.446 0.488,-0.468C0.505,-0.49 0.527,-0.507 0.552,-0.519C0.578,-0.532 0.607,-0.538 0.641,-0.538C0.667,-0.538 0.69,-0.534 0.711,-0.527C0.732,-0.52 0.75,-0.508 0.765,-0.493C0.78,-0.477 0.791,-0.456 0.799,-0.431C0.807,-0.406 0.811,-0.375 0.811,-0.34L0.811,-0L0.682,-0L0.682,-0.34C0.682,-0.366 0.678,-0.385 0.671,-0.399C0.664,-0.413 0.654,-0.422 0.641,-0.427C0.628,-0.433 0.613,-0.435 0.595,-0.435C0.577,-0.435 0.562,-0.432 0.549,-0.425C0.535,-0.419 0.524,-0.41 0.515,-0.398C0.506,-0.386 0.5,-0.373 0.495,-0.357C0.491,-0.342 0.489,-0.325 0.489,-0.307Z" style="fill:white;fill-rule:nonzero;"/>
        </g>
        <g transform="matrix(779.988,0,0,779.988,3211.19,840.603)">
        </g>
    </g>
    <g transform="matrix(0.117809,0,0,0.117809,2.45828,50.5533)">
        <g transform="matrix(509.3,0,0,509.3,288.681,840.603)">
            <path d="M0.269,-0.826L0.269,-0.721L0.2,-0.721L0.2,0.06L0.269,0.06L0.269,0.165L0.059,0.165L0.059,-0.826L0.269,-0.826Z" style="fill:white;fill-rule:nonzero;"/>
        </g>
        <g transform="matrix(509.3,0,0,509.3,429.613,840.603)">
            <path d="M0.21,-0.711L0.21,-0L0.063,-0L0.063,-0.711L0.21,-0.711ZM0.636,-0.711L0.354,-0.36L0.191,-0.185L0.165,-0.324L0.275,-0.474L0.456,-0.711L0.636,-0.711ZM0.469,-0L0.26,-0.329L0.368,-0.419L0.643,-0L0.469,-0Z" style="fill:white;fill-rule:nonzero;"/>
        </g>
        <g transform="matrix(509.3,0,0,509.3,753.381,840.603)">
            <path d="M0.195,-0.413L0.195,-0L0.055,-0L0.055,-0.528L0.187,-0.528L0.195,-0.413ZM0.354,-0.532L0.352,-0.401C0.345,-0.402 0.337,-0.403 0.327,-0.404C0.318,-0.405 0.309,-0.405 0.301,-0.405C0.282,-0.405 0.264,-0.403 0.25,-0.398C0.235,-0.392 0.223,-0.385 0.214,-0.376C0.204,-0.366 0.197,-0.354 0.192,-0.34C0.187,-0.326 0.185,-0.31 0.184,-0.292L0.156,-0.301C0.156,-0.335 0.159,-0.367 0.166,-0.395C0.173,-0.424 0.183,-0.449 0.196,-0.471C0.209,-0.492 0.225,-0.509 0.244,-0.52C0.264,-0.532 0.286,-0.538 0.311,-0.538C0.318,-0.538 0.326,-0.538 0.334,-0.536C0.342,-0.535 0.349,-0.534 0.354,-0.532Z" style="fill:white;fill-rule:nonzero;"/>
        </g>
        <g transform="matrix(509.3,0,0,509.3,939.783,840.603)">
            <path d="M0.006,-0.721L0.006,-0.826L0.217,-0.826L0.217,0.165L0.006,0.165L0.006,0.06L0.076,0.06L0.076,-0.721L0.006,-0.721Z" style="fill:white;fill-rule:nonzero;"/>
        </g>
        <g transform="matrix(509.3,0,0,509.3,1080.71,840.603)">
        </g>
        <g transform="matrix(509.3,0,0,509.3,1207.38,840.603)">
            <path d="M0.547,-0.265L0.547,-0.155L0.034,-0.155L0.028,-0.241L0.324,-0.711L0.436,-0.711L0.315,-0.508L0.167,-0.265L0.547,-0.265ZM0.466,-0.711L0.466,-0L0.326,-0L0.326,-0.711L0.466,-0.711Z" style="fill:white;fill-rule:nonzero;"/>
        </g>
        <g transform="matrix(509.3,0,0,509.3,1499.68,840.603)">
            <path d="M0.367,-0.115L0.367,-0.75L0.508,-0.75L0.508,-0L0.381,-0L0.367,-0.115ZM0.032,-0.258L0.032,-0.268C0.032,-0.308 0.037,-0.345 0.046,-0.378C0.055,-0.411 0.069,-0.439 0.086,-0.463C0.104,-0.487 0.126,-0.506 0.151,-0.519C0.177,-0.532 0.206,-0.538 0.239,-0.538C0.27,-0.538 0.297,-0.532 0.321,-0.518C0.344,-0.505 0.364,-0.487 0.38,-0.463C0.396,-0.439 0.41,-0.411 0.42,-0.379C0.43,-0.346 0.437,-0.311 0.442,-0.273L0.442,-0.25C0.437,-0.213 0.43,-0.179 0.42,-0.147C0.41,-0.116 0.396,-0.088 0.38,-0.065C0.364,-0.041 0.344,-0.023 0.32,-0.01C0.297,0.003 0.27,0.01 0.238,0.01C0.205,0.01 0.176,0.003 0.151,-0.01C0.125,-0.024 0.104,-0.042 0.086,-0.066C0.069,-0.09 0.055,-0.119 0.046,-0.151C0.037,-0.184 0.032,-0.22 0.032,-0.258ZM0.173,-0.268L0.173,-0.258C0.173,-0.236 0.175,-0.216 0.179,-0.197C0.182,-0.178 0.188,-0.161 0.196,-0.147C0.204,-0.132 0.214,-0.121 0.227,-0.113C0.24,-0.105 0.255,-0.101 0.274,-0.101C0.298,-0.101 0.318,-0.106 0.333,-0.117C0.349,-0.128 0.361,-0.143 0.369,-0.163C0.377,-0.182 0.382,-0.204 0.384,-0.229L0.384,-0.293C0.383,-0.313 0.38,-0.332 0.375,-0.348C0.371,-0.365 0.364,-0.379 0.355,-0.391C0.346,-0.402 0.335,-0.412 0.322,-0.418C0.308,-0.424 0.293,-0.428 0.275,-0.428C0.257,-0.428 0.241,-0.423 0.228,-0.415C0.215,-0.407 0.205,-0.396 0.197,-0.381C0.188,-0.367 0.183,-0.35 0.179,-0.331C0.175,-0.311 0.173,-0.291 0.173,-0.268Z" style="fill:white;fill-rule:nonzero;"/>
        </g>
        <g transform="matrix(509.3,0,0,509.3,1786.4,840.603)">
            <path d="M0.122,-0.493L0.043,-0.513L0.069,-0.711L0.315,-0.711L0.315,-0.634L0.15,-0.634L0.14,-0.566C0.144,-0.568 0.153,-0.571 0.165,-0.574C0.177,-0.577 0.19,-0.579 0.204,-0.579C0.233,-0.579 0.257,-0.574 0.277,-0.564C0.296,-0.555 0.311,-0.541 0.321,-0.522C0.331,-0.504 0.336,-0.481 0.336,-0.455C0.336,-0.432 0.331,-0.411 0.32,-0.39C0.309,-0.37 0.293,-0.353 0.271,-0.34C0.248,-0.327 0.22,-0.32 0.186,-0.32C0.161,-0.32 0.136,-0.325 0.113,-0.334C0.09,-0.343 0.071,-0.356 0.057,-0.374C0.042,-0.391 0.035,-0.411 0.034,-0.435L0.134,-0.435C0.134,-0.422 0.139,-0.412 0.148,-0.407C0.158,-0.402 0.17,-0.399 0.186,-0.399C0.207,-0.399 0.22,-0.405 0.227,-0.416C0.234,-0.427 0.237,-0.44 0.237,-0.455C0.237,-0.473 0.232,-0.487 0.223,-0.497C0.213,-0.507 0.198,-0.512 0.178,-0.512C0.162,-0.512 0.149,-0.51 0.141,-0.505C0.133,-0.501 0.126,-0.497 0.122,-0.493Z" style="fill:white;fill-rule:nonzero;"/>
        </g>
        <g transform="matrix(509.3,0,0,509.3,1976.03,840.603)">
        </g>
        <g transform="matrix(509.3,0,0,509.3,2102.69,840.603)">
            <path d="M0.181,-0.324L0.069,-0.351L0.11,-0.711L0.509,-0.711L0.509,-0.597L0.225,-0.597L0.207,-0.439C0.217,-0.445 0.231,-0.451 0.25,-0.457C0.27,-0.464 0.291,-0.467 0.315,-0.467C0.349,-0.467 0.38,-0.461 0.407,-0.451C0.434,-0.44 0.456,-0.424 0.475,-0.404C0.494,-0.383 0.508,-0.358 0.518,-0.329C0.527,-0.299 0.532,-0.266 0.532,-0.228C0.532,-0.196 0.527,-0.166 0.517,-0.138C0.508,-0.109 0.493,-0.084 0.473,-0.062C0.453,-0.039 0.429,-0.022 0.399,-0.009C0.369,0.003 0.333,0.01 0.292,0.01C0.261,0.01 0.232,0.005 0.203,-0.004C0.175,-0.013 0.149,-0.027 0.127,-0.044C0.104,-0.062 0.086,-0.084 0.072,-0.11C0.059,-0.135 0.052,-0.165 0.051,-0.197L0.191,-0.197C0.193,-0.177 0.198,-0.16 0.207,-0.145C0.215,-0.131 0.227,-0.12 0.241,-0.112C0.256,-0.104 0.272,-0.1 0.291,-0.1C0.309,-0.1 0.325,-0.104 0.337,-0.11C0.35,-0.117 0.36,-0.127 0.368,-0.139C0.376,-0.151 0.382,-0.166 0.385,-0.182C0.389,-0.198 0.391,-0.216 0.391,-0.236C0.391,-0.255 0.389,-0.272 0.384,-0.288C0.38,-0.303 0.373,-0.317 0.363,-0.328C0.354,-0.34 0.342,-0.348 0.327,-0.354C0.313,-0.361 0.296,-0.364 0.277,-0.364C0.251,-0.364 0.231,-0.36 0.216,-0.351C0.202,-0.343 0.19,-0.334 0.181,-0.324Z" style="fill:white;fill-rule:nonzero;"/>
        </g>
        <g transform="matrix(509.3,0,0,509.3,2394.99,840.603)">
            <path d="M0.34,-0.146C0.34,-0.156 0.337,-0.165 0.332,-0.174C0.326,-0.182 0.315,-0.189 0.299,-0.196C0.283,-0.203 0.261,-0.209 0.231,-0.216C0.204,-0.221 0.179,-0.229 0.156,-0.238C0.133,-0.246 0.114,-0.257 0.097,-0.27C0.08,-0.283 0.067,-0.298 0.058,-0.315C0.048,-0.332 0.044,-0.352 0.044,-0.375C0.044,-0.397 0.048,-0.418 0.058,-0.437C0.067,-0.457 0.081,-0.474 0.099,-0.489C0.118,-0.504 0.14,-0.516 0.166,-0.525C0.192,-0.534 0.221,-0.538 0.254,-0.538C0.3,-0.538 0.34,-0.531 0.373,-0.516C0.406,-0.501 0.431,-0.481 0.449,-0.456C0.467,-0.43 0.476,-0.401 0.476,-0.368L0.335,-0.368C0.335,-0.382 0.332,-0.394 0.326,-0.405C0.321,-0.416 0.312,-0.425 0.3,-0.431C0.288,-0.438 0.273,-0.441 0.254,-0.441C0.238,-0.441 0.225,-0.438 0.213,-0.433C0.202,-0.427 0.193,-0.42 0.187,-0.411C0.181,-0.403 0.178,-0.393 0.178,-0.382C0.178,-0.374 0.18,-0.366 0.184,-0.36C0.187,-0.354 0.193,-0.348 0.2,-0.343C0.208,-0.338 0.218,-0.333 0.231,-0.328C0.243,-0.324 0.259,-0.32 0.278,-0.316C0.316,-0.309 0.35,-0.299 0.379,-0.286C0.409,-0.274 0.433,-0.257 0.451,-0.235C0.468,-0.214 0.477,-0.186 0.477,-0.151C0.477,-0.128 0.472,-0.107 0.461,-0.087C0.451,-0.067 0.436,-0.05 0.417,-0.036C0.397,-0.021 0.374,-0.01 0.347,-0.002C0.319,0.006 0.289,0.01 0.255,0.01C0.206,0.01 0.164,0.001 0.13,-0.017C0.096,-0.034 0.07,-0.057 0.053,-0.084C0.036,-0.111 0.027,-0.139 0.027,-0.167L0.16,-0.167C0.161,-0.148 0.166,-0.133 0.175,-0.121C0.184,-0.11 0.196,-0.101 0.211,-0.096C0.225,-0.091 0.241,-0.088 0.258,-0.088C0.276,-0.088 0.291,-0.09 0.303,-0.095C0.315,-0.1 0.324,-0.107 0.331,-0.116C0.337,-0.124 0.34,-0.134 0.34,-0.146Z" style="fill:white;fill-rule:nonzero;"/>
        </g>
        <g transform="matrix(509.3,0,0,509.3,2656.67,840.603)">
            <path d="M0.338,-0.404L0.338,-0.326L0.037,-0.326L0.037,-0.391L0.176,-0.518C0.188,-0.529 0.198,-0.539 0.206,-0.549C0.213,-0.559 0.219,-0.568 0.222,-0.576C0.226,-0.584 0.228,-0.591 0.228,-0.596C0.228,-0.609 0.224,-0.619 0.216,-0.627C0.208,-0.634 0.196,-0.638 0.181,-0.638C0.163,-0.638 0.149,-0.633 0.14,-0.622C0.131,-0.611 0.127,-0.598 0.127,-0.583L0.028,-0.583C0.028,-0.608 0.034,-0.63 0.046,-0.65C0.058,-0.67 0.075,-0.686 0.097,-0.698C0.119,-0.711 0.146,-0.717 0.176,-0.717C0.208,-0.717 0.236,-0.712 0.258,-0.702C0.28,-0.693 0.297,-0.679 0.309,-0.661C0.321,-0.643 0.327,-0.622 0.327,-0.596C0.327,-0.577 0.323,-0.56 0.315,-0.545C0.308,-0.53 0.296,-0.515 0.28,-0.5C0.265,-0.485 0.245,-0.468 0.221,-0.449L0.167,-0.404L0.338,-0.404Z" style="fill:white;fill-rule:nonzero;"/>
        </g>
        <g transform="matrix(509.3,0,0,509.3,2846.29,840.603)">
        </g>
    </g>
    <g transform="matrix(0.255514,0,0,0.255514,755.385,-39.482)">
        <g transform="matrix(779.988,0,0,779.988,288.681,840.603)">
            <path d="M0.547,-0.265L0.547,-0.155L0.034,-0.155L0.028,-0.241L0.324,-0.711L0.436,-0.711L0.315,-0.508L0.167,-0.265L0.547,-0.265ZM0.466,-0.711L0.466,-0L0.326,-0L0.326,-0.711L0.466,-0.711Z" style="fill:white;fill-rule:nonzero;"/>
        </g>
        <g transform="matrix(779.988,0,0,779.988,736.333,840.603)">
            <path d="M0.193,-0.416L0.268,-0.416C0.292,-0.416 0.312,-0.421 0.327,-0.429C0.343,-0.437 0.355,-0.449 0.362,-0.464C0.37,-0.479 0.374,-0.497 0.374,-0.517C0.374,-0.535 0.37,-0.552 0.363,-0.566C0.356,-0.58 0.346,-0.591 0.332,-0.599C0.317,-0.607 0.299,-0.611 0.277,-0.611C0.26,-0.611 0.244,-0.608 0.23,-0.601C0.215,-0.594 0.203,-0.584 0.194,-0.572C0.185,-0.559 0.181,-0.544 0.181,-0.527L0.04,-0.527C0.04,-0.566 0.051,-0.6 0.071,-0.629C0.092,-0.658 0.121,-0.681 0.156,-0.697C0.192,-0.713 0.231,-0.721 0.273,-0.721C0.322,-0.721 0.364,-0.713 0.4,-0.698C0.436,-0.683 0.464,-0.66 0.484,-0.63C0.505,-0.6 0.515,-0.563 0.515,-0.519C0.515,-0.496 0.51,-0.475 0.499,-0.453C0.489,-0.432 0.474,-0.413 0.454,-0.397C0.435,-0.38 0.411,-0.367 0.384,-0.357C0.356,-0.347 0.325,-0.342 0.291,-0.342L0.193,-0.342L0.193,-0.416ZM0.193,-0.309L0.193,-0.383L0.291,-0.383C0.329,-0.383 0.363,-0.378 0.393,-0.369C0.422,-0.36 0.447,-0.348 0.466,-0.331C0.486,-0.315 0.501,-0.296 0.511,-0.273C0.521,-0.251 0.526,-0.226 0.526,-0.199C0.526,-0.166 0.52,-0.136 0.507,-0.111C0.495,-0.085 0.477,-0.063 0.454,-0.045C0.431,-0.027 0.404,-0.013 0.374,-0.004C0.343,0.005 0.31,0.01 0.274,0.01C0.244,0.01 0.214,0.006 0.185,-0.003C0.156,-0.011 0.13,-0.023 0.107,-0.04C0.084,-0.057 0.065,-0.078 0.052,-0.104C0.038,-0.129 0.031,-0.16 0.031,-0.195L0.172,-0.195C0.172,-0.176 0.176,-0.16 0.186,-0.146C0.195,-0.132 0.207,-0.121 0.223,-0.112C0.239,-0.104 0.257,-0.1 0.277,-0.1C0.3,-0.1 0.319,-0.104 0.335,-0.113C0.351,-0.121 0.364,-0.133 0.372,-0.148C0.381,-0.163 0.385,-0.181 0.385,-0.201C0.385,-0.227 0.38,-0.248 0.371,-0.263C0.362,-0.279 0.348,-0.291 0.331,-0.298C0.313,-0.306 0.292,-0.309 0.268,-0.309L0.193,-0.309Z" style="fill:white;fill-rule:nonzero;"/>
        </g>
        <g transform="matrix(779.988,0,0,779.988,1183.99,840.603)">
        </g>
    </g>
    <g transform="matrix(0.0875865,0,0,0.0875865,12.1826,9.63644)">
        <g transform="matrix(685.037,0,0,685.037,288.681,840.603)">
            <path d="M0.148,-0.107L0.158,-0.107C0.197,-0.107 0.23,-0.112 0.258,-0.121C0.286,-0.131 0.31,-0.145 0.328,-0.163C0.346,-0.181 0.36,-0.204 0.369,-0.23C0.377,-0.257 0.382,-0.287 0.382,-0.321L0.382,-0.456C0.382,-0.481 0.379,-0.504 0.374,-0.523C0.369,-0.543 0.362,-0.559 0.353,-0.572C0.344,-0.585 0.333,-0.595 0.321,-0.601C0.308,-0.608 0.295,-0.611 0.28,-0.611C0.265,-0.611 0.251,-0.607 0.239,-0.599C0.227,-0.592 0.217,-0.581 0.208,-0.568C0.2,-0.555 0.193,-0.54 0.189,-0.524C0.185,-0.507 0.183,-0.489 0.183,-0.471C0.183,-0.453 0.185,-0.435 0.189,-0.419C0.193,-0.403 0.2,-0.388 0.208,-0.375C0.216,-0.363 0.227,-0.353 0.24,-0.346C0.253,-0.339 0.268,-0.335 0.285,-0.335C0.301,-0.335 0.316,-0.338 0.329,-0.344C0.343,-0.351 0.354,-0.359 0.363,-0.37C0.372,-0.38 0.38,-0.392 0.385,-0.404C0.39,-0.417 0.392,-0.43 0.392,-0.443L0.439,-0.418C0.439,-0.395 0.434,-0.372 0.424,-0.35C0.414,-0.328 0.401,-0.308 0.383,-0.29C0.366,-0.272 0.346,-0.257 0.323,-0.247C0.3,-0.236 0.276,-0.231 0.25,-0.231C0.216,-0.231 0.187,-0.237 0.161,-0.249C0.135,-0.261 0.114,-0.278 0.096,-0.299C0.078,-0.321 0.065,-0.346 0.056,-0.376C0.047,-0.405 0.042,-0.436 0.042,-0.47C0.042,-0.504 0.048,-0.537 0.059,-0.567C0.07,-0.597 0.086,-0.624 0.107,-0.647C0.128,-0.67 0.153,-0.688 0.183,-0.701C0.212,-0.714 0.245,-0.721 0.281,-0.721C0.317,-0.721 0.35,-0.714 0.38,-0.7C0.409,-0.686 0.435,-0.666 0.456,-0.641C0.477,-0.615 0.494,-0.585 0.505,-0.549C0.517,-0.514 0.523,-0.474 0.523,-0.431L0.523,-0.382C0.523,-0.336 0.518,-0.293 0.508,-0.253C0.498,-0.214 0.483,-0.178 0.463,-0.146C0.444,-0.114 0.419,-0.086 0.39,-0.064C0.361,-0.041 0.327,-0.023 0.289,-0.011C0.25,0.001 0.207,0.007 0.16,0.007L0.148,0.007L0.148,-0.107Z" style="fill:white;fill-rule:nonzero;"/>
        </g>
        <g transform="matrix(685.037,0,0,685.037,681.839,840.603)">
            <path d="M0.412,-0.718L0.432,-0.718L0.432,-0.606L0.424,-0.606C0.387,-0.606 0.354,-0.6 0.325,-0.589C0.296,-0.578 0.271,-0.563 0.251,-0.542C0.231,-0.522 0.216,-0.498 0.205,-0.469C0.195,-0.44 0.19,-0.408 0.19,-0.373L0.19,-0.255C0.19,-0.229 0.192,-0.207 0.197,-0.187C0.202,-0.168 0.209,-0.152 0.219,-0.139C0.228,-0.126 0.24,-0.117 0.253,-0.11C0.266,-0.104 0.281,-0.1 0.297,-0.1C0.312,-0.1 0.326,-0.104 0.339,-0.11C0.351,-0.117 0.362,-0.126 0.371,-0.138C0.38,-0.15 0.387,-0.164 0.392,-0.18C0.396,-0.196 0.399,-0.214 0.399,-0.233C0.399,-0.252 0.396,-0.27 0.392,-0.286C0.387,-0.302 0.38,-0.316 0.371,-0.328C0.362,-0.34 0.351,-0.349 0.338,-0.356C0.325,-0.363 0.31,-0.366 0.293,-0.366C0.271,-0.366 0.252,-0.361 0.235,-0.35C0.218,-0.34 0.205,-0.327 0.196,-0.311C0.186,-0.295 0.181,-0.278 0.181,-0.261L0.138,-0.288C0.139,-0.313 0.145,-0.337 0.154,-0.359C0.164,-0.382 0.177,-0.402 0.194,-0.419C0.211,-0.437 0.232,-0.45 0.256,-0.46C0.28,-0.47 0.307,-0.475 0.337,-0.475C0.371,-0.475 0.4,-0.469 0.425,-0.456C0.45,-0.444 0.471,-0.426 0.488,-0.404C0.505,-0.382 0.518,-0.356 0.527,-0.327C0.535,-0.298 0.539,-0.267 0.539,-0.234C0.539,-0.2 0.534,-0.168 0.522,-0.138C0.511,-0.109 0.495,-0.083 0.474,-0.061C0.453,-0.038 0.428,-0.021 0.398,-0.009C0.369,0.004 0.336,0.01 0.3,0.01C0.262,0.01 0.228,0.003 0.197,-0.011C0.166,-0.025 0.14,-0.044 0.118,-0.069C0.096,-0.095 0.079,-0.124 0.067,-0.159C0.055,-0.193 0.049,-0.231 0.049,-0.272L0.049,-0.327C0.049,-0.384 0.057,-0.436 0.074,-0.484C0.091,-0.532 0.115,-0.573 0.146,-0.608C0.178,-0.643 0.216,-0.67 0.261,-0.689C0.306,-0.709 0.356,-0.718 0.412,-0.718Z" style="fill:white;fill-rule:nonzero;"/>
        </g>
        <g transform="matrix(685.037,0,0,685.037,1075,840.603)">
            <path d="M0.188,-0.119L0.187,-0.024C0.187,0.012 0.178,0.048 0.16,0.085C0.142,0.122 0.12,0.152 0.092,0.176L0.019,0.138C0.027,0.123 0.035,0.108 0.043,0.093C0.05,0.078 0.057,0.061 0.062,0.043C0.067,0.026 0.07,0.005 0.07,-0.018L0.07,-0.119L0.188,-0.119Z" style="fill:white;fill-rule:nonzero;"/>
        </g>
        <g transform="matrix(685.037,0,0,685.037,1243.57,840.603)">
            <path d="M0.148,-0.107L0.158,-0.107C0.197,-0.107 0.23,-0.112 0.258,-0.121C0.286,-0.131 0.31,-0.145 0.328,-0.163C0.346,-0.181 0.36,-0.204 0.369,-0.23C0.377,-0.257 0.382,-0.287 0.382,-0.321L0.382,-0.456C0.382,-0.481 0.379,-0.504 0.374,-0.523C0.369,-0.543 0.362,-0.559 0.353,-0.572C0.344,-0.585 0.333,-0.595 0.321,-0.601C0.308,-0.608 0.295,-0.611 0.28,-0.611C0.265,-0.611 0.251,-0.607 0.239,-0.599C0.227,-0.592 0.217,-0.581 0.208,-0.568C0.2,-0.555 0.193,-0.54 0.189,-0.524C0.185,-0.507 0.183,-0.489 0.183,-0.471C0.183,-0.453 0.185,-0.435 0.189,-0.419C0.193,-0.403 0.2,-0.388 0.208,-0.375C0.216,-0.363 0.227,-0.353 0.24,-0.346C0.253,-0.339 0.268,-0.335 0.285,-0.335C0.301,-0.335 0.316,-0.338 0.329,-0.344C0.343,-0.351 0.354,-0.359 0.363,-0.37C0.372,-0.38 0.38,-0.392 0.385,-0.404C0.39,-0.417 0.392,-0.43 0.392,-0.443L0.439,-0.418C0.439,-0.395 0.434,-0.372 0.424,-0.35C0.414,-0.328 0.401,-0.308 0.383,-0.29C0.366,-0.272 0.346,-0.257 0.323,-0.247C0.3,-0.236 0.276,-0.231 0.25,-0.231C0.216,-0.231 0.187,-0.237 0.161,-0.249C0.135,-0.261 0.114,-0.278 0.096,-0.299C0.078,-0.321 0.065,-0.346 0.056,-0.376C0.047,-0.405 0.042,-0.436 0.042,-0.47C0.042,-0.504 0.048,-0.537 0.059,-0.567C0.07,-0.597 0.086,-0.624 0.107,-0.647C0.128,-0.67 0.153,-0.688 0.183,-0.701C0.212,-0.714 0.245,-0.721 0.281,-0.721C0.317,-0.721 0.35,-0.714 0.38,-0.7C0.409,-0.686 0.435,-0.666 0.456,-0.641C0.477,-0.615 0.494,-0.585 0.505,-0.549C0.517,-0.514 0.523,-0.474 0.523,-0.431L0.523,-0.382C0.523,-0.336 0.518,-0.293 0.508,-0.253C0.498,-0.214 0.483,-0.178 0.463,-0.146C0.444,-0.114 0.419,-0.086 0.39,-0.064C0.361,-0.041 0.327,-0.023 0.289,-0.011C0.25,0.001 0.207,0.007 0.16,0.007L0.148,0.007L0.148,-0.107Z" style="fill:white;fill-rule:nonzero;"/>
        </g>
        <g transform="matrix(685.037,0,0,685.037,1636.72,840.603)">
            <path d="M0.527,-0.418L0.527,-0.295C0.527,-0.241 0.522,-0.195 0.51,-0.157C0.499,-0.118 0.482,-0.087 0.461,-0.062C0.44,-0.038 0.415,-0.019 0.385,-0.008C0.356,0.004 0.323,0.01 0.288,0.01C0.259,0.01 0.232,0.006 0.208,-0.001C0.183,-0.009 0.161,-0.02 0.141,-0.036C0.121,-0.051 0.104,-0.071 0.09,-0.095C0.076,-0.119 0.065,-0.148 0.058,-0.181C0.05,-0.214 0.047,-0.252 0.047,-0.295L0.047,-0.418C0.047,-0.471 0.052,-0.517 0.064,-0.555C0.075,-0.594 0.092,-0.625 0.113,-0.649C0.134,-0.674 0.16,-0.692 0.189,-0.703C0.218,-0.715 0.251,-0.721 0.287,-0.721C0.315,-0.721 0.342,-0.717 0.367,-0.71C0.391,-0.702 0.413,-0.691 0.433,-0.676C0.453,-0.66 0.47,-0.641 0.484,-0.617C0.498,-0.593 0.508,-0.565 0.516,-0.532C0.523,-0.498 0.527,-0.461 0.527,-0.418ZM0.386,-0.276L0.386,-0.437C0.386,-0.463 0.385,-0.485 0.382,-0.504C0.379,-0.524 0.375,-0.54 0.37,-0.554C0.364,-0.567 0.357,-0.578 0.349,-0.586C0.341,-0.595 0.332,-0.601 0.321,-0.605C0.311,-0.609 0.299,-0.611 0.287,-0.611C0.271,-0.611 0.257,-0.608 0.244,-0.602C0.232,-0.595 0.222,-0.586 0.213,-0.572C0.205,-0.559 0.198,-0.541 0.194,-0.518C0.19,-0.496 0.187,-0.469 0.187,-0.437L0.187,-0.276C0.187,-0.251 0.189,-0.228 0.192,-0.208C0.194,-0.189 0.199,-0.172 0.204,-0.159C0.21,-0.145 0.217,-0.134 0.225,-0.125C0.233,-0.116 0.242,-0.11 0.253,-0.106C0.263,-0.102 0.275,-0.1 0.288,-0.1C0.303,-0.1 0.317,-0.103 0.329,-0.11C0.342,-0.116 0.352,-0.126 0.361,-0.14C0.369,-0.154 0.376,-0.172 0.38,-0.194C0.384,-0.217 0.386,-0.244 0.386,-0.276Z" style="fill:white;fill-rule:nonzero;"/>
        </g>
        <g transform="matrix(685.037,0,0,685.037,2029.88,840.603)">
            <path d="M0.412,-0.718L0.432,-0.718L0.432,-0.606L0.424,-0.606C0.387,-0.606 0.354,-0.6 0.325,-0.589C0.296,-0.578 0.271,-0.563 0.251,-0.542C0.231,-0.522 0.216,-0.498 0.205,-0.469C0.195,-0.44 0.19,-0.408 0.19,-0.373L0.19,-0.255C0.19,-0.229 0.192,-0.207 0.197,-0.187C0.202,-0.168 0.209,-0.152 0.219,-0.139C0.228,-0.126 0.24,-0.117 0.253,-0.11C0.266,-0.104 0.281,-0.1 0.297,-0.1C0.312,-0.1 0.326,-0.104 0.339,-0.11C0.351,-0.117 0.362,-0.126 0.371,-0.138C0.38,-0.15 0.387,-0.164 0.392,-0.18C0.396,-0.196 0.399,-0.214 0.399,-0.233C0.399,-0.252 0.396,-0.27 0.392,-0.286C0.387,-0.302 0.38,-0.316 0.371,-0.328C0.362,-0.34 0.351,-0.349 0.338,-0.356C0.325,-0.363 0.31,-0.366 0.293,-0.366C0.271,-0.366 0.252,-0.361 0.235,-0.35C0.218,-0.34 0.205,-0.327 0.196,-0.311C0.186,-0.295 0.181,-0.278 0.181,-0.261L0.138,-0.288C0.139,-0.313 0.145,-0.337 0.154,-0.359C0.164,-0.382 0.177,-0.402 0.194,-0.419C0.211,-0.437 0.232,-0.45 0.256,-0.46C0.28,-0.47 0.307,-0.475 0.337,-0.475C0.371,-0.475 0.4,-0.469 0.425,-0.456C0.45,-0.444 0.471,-0.426 0.488,-0.404C0.505,-0.382 0.518,-0.356 0.527,-0.327C0.535,-0.298 0.539,-0.267 0.539,-0.234C0.539,-0.2 0.534,-0.168 0.522,-0.138C0.511,-0.109 0.495,-0.083 0.474,-0.061C0.453,-0.038 0.428,-0.021 0.398,-0.009C0.369,0.004 0.336,0.01 0.3,0.01C0.262,0.01 0.228,0.003 0.197,-0.011C0.166,-0.025 0.14,-0.044 0.118,-0.069C0.096,-0.095 0.079,-0.124 0.067,-0.159C0.055,-0.193 0.049,-0.231 0.049,-0.272L0.049,-0.327C0.049,-0.384 0.057,-0.436 0.074,-0.484C0.091,-0.532 0.115,-0.573 0.146,-0.608C0.178,-0.643 0.216,-0.67 0.261,-0.689C0.306,-0.709 0.356,-0.718 0.412,-0.718Z" style="fill:white;fill-rule:nonzero;"/>
        </g>
        <g transform="matrix(685.037,0,0,685.037,2423.04,840.603)">
        </g>
    </g>
    <g transform="matrix(0.0875865,0,0,0.0875865,9.78485,948.64)">
        <g transform="matrix(685.037,0,0,685.037,288.681,840.603)">
            <path d="M0.391,-0.712L0.391,-0L0.251,-0L0.251,-0.55L0.082,-0.497L0.082,-0.608L0.377,-0.712L0.391,-0.712Z" style="fill:white;fill-rule:nonzero;"/>
        </g>
        <g transform="matrix(685.037,0,0,685.037,681.839,840.603)">
            <path d="M0.188,-0.119L0.187,-0.024C0.187,0.012 0.178,0.048 0.16,0.085C0.142,0.122 0.12,0.152 0.092,0.176L0.019,0.138C0.027,0.123 0.035,0.108 0.043,0.093C0.05,0.078 0.057,0.061 0.062,0.043C0.067,0.026 0.07,0.005 0.07,-0.018L0.07,-0.119L0.188,-0.119Z" style="fill:white;fill-rule:nonzero;"/>
        </g>
        <g transform="matrix(685.037,0,0,685.037,850.408,840.603)">
            <path d="M0.148,-0.107L0.158,-0.107C0.197,-0.107 0.23,-0.112 0.258,-0.121C0.286,-0.131 0.31,-0.145 0.328,-0.163C0.346,-0.181 0.36,-0.204 0.369,-0.23C0.377,-0.257 0.382,-0.287 0.382,-0.321L0.382,-0.456C0.382,-0.481 0.379,-0.504 0.374,-0.523C0.369,-0.543 0.362,-0.559 0.353,-0.572C0.344,-0.585 0.333,-0.595 0.321,-0.601C0.308,-0.608 0.295,-0.611 0.28,-0.611C0.265,-0.611 0.251,-0.607 0.239,-0.599C0.227,-0.592 0.217,-0.581 0.208,-0.568C0.2,-0.555 0.193,-0.54 0.189,-0.524C0.185,-0.507 0.183,-0.489 0.183,-0.471C0.183,-0.453 0.185,-0.435 0.189,-0.419C0.193,-0.403 0.2,-0.388 0.208,-0.375C0.216,-0.363 0.227,-0.353 0.24,-0.346C0.253,-0.339 0.268,-0.335 0.285,-0.335C0.301,-0.335 0.316,-0.338 0.329,-0.344C0.343,-0.351 0.354,-0.359 0.363,-0.37C0.372,-0.38 0.38,-0.392 0.385,-0.404C0.39,-0.417 0.392,-0.43 0.392,-0.443L0.439,-0.418C0.439,-0.395 0.434,-0.372 0.424,-0.35C0.414,-0.328 0.401,-0.308 0.383,-0.29C0.366,-0.272 0.346,-0.257 0.323,-0.247C0.3,-0.236 0.276,-0.231 0.25,-0.231C0.216,-0.231 0.187,-0.237 0.161,-0.249C0.135,-0.261 0.114,-0.278 0.096,-0.299C0.078,-0.321 0.065,-0.346 0.056,-0.376C0.047,-0.405 0.042,-0.436 0.042,-0.47C0.042,-0.504 0.048,-0.537 0.059,-0.567C0.07,-0.597 0.086,-0.624 0.107,-0.647C0.128,-0.67 0.153,-0.688 0.183,-0.701C0.212,-0.714 0.245,-0.721 0.281,-0.721C0.317,-0.721 0.35,-0.714 0.38,-0.7C0.409,-0.686 0.435,-0.666 0.456,-0.641C0.477,-0.615 0.494,-0.585 0.505,-0.549C0.517,-0.514 0.523,-0.474 0.523,-0.431L0.523,-0.382C0.523,-0.336 0.518,-0.293 0.508,-0.253C0.498,-0.214 0.483,-0.178 0.463,-0.146C0.444,-0.114 0.419,-0.086 0.39,-0.064C0.361,-0.041 0.327,-0.023 0.289,-0.011C0.25,0.001 0.207,0.007 0.16,0.007L0.148,0.007L0.148,-0.107Z" style="fill:white;fill-rule:nonzero;"/>
        </g>
        <g transform="matrix(685.037,0,0,685.037,1243.57,840.603)">
        </g>
    </g>
    <defs>
        <radialGradient id="_Radial1" cx="0" cy="0" r="1" gradientUnits="userSpaceOnUse" gradientTransform="matrix(-1378.78,-1204.59,1378.78,-1204.59,1332.65,1237.13)"><stop offset="0" style="stop-color:rgb(32,65,15);stop-opacity:1"/><stop offset="1" style="stop-color:rgb(74,158,100);stop-opacity:1"/></radialGradient>
    </defs>
</svg>
